<svg xmlns="http://www.w3.org/2000/svg" width="44" height="44" viewBox="0 0 44 44"><defs><style>.a{fill:#005b82;}</style></defs><path class="a" d="M39,28.4a1.83,1.83,0,0,1-1,.41H6.09A1.67,1.67,0,0,1,5,28.3,8.94,8.94,0,0,1,3,22.66a8.74,8.74,0,0,1,8.67-8.8h.14a8.4,8.4,0,0,1,4.5,1.23A9.5,9.5,0,0,1,19,17.44h0a9.07,9.07,0,0,0-5.12-4.61,10.37,10.37,0,0,1,9.32-5.94A10.21,10.21,0,0,1,33.34,15.8a7,7,0,0,0-3.79,2.57h0a4.48,4.48,0,0,1,1.12-.82,6.91,6.91,0,0,1,9.43,2.53A6.87,6.87,0,0,1,39,28.41Zm.72,5h0v3a.7.7,0,0,1-.68.72H36a.71.71,0,0,1-.72-.68v-2.7a.27.27,0,0,0-.23-.31H24.53a.28.28,0,0,0-.31.24v2.73a.7.7,0,0,1-.68.72h-3a.7.7,0,0,1-.71-.68v-2.7a.29.29,0,0,0-.23-.31H9.06a.28.28,0,0,0-.31.24v2.73a.7.7,0,0,1-.68.72h-3a.7.7,0,0,1-.72-.69V32.7h0V32c0-.41.31-.62.72-.62H39c.41,0,.72.21.72.62Z"/></svg>